# This file uses centimeters as units for non-parametric coordinates.

mtllib Wapen.mtl
g default
v -0.500000 -0.152918 0.500000
v 0.500000 -0.152918 0.500000
v -0.500000 0.152918 0.500000
v 0.500000 0.152918 0.500000
v -0.500000 0.152918 0.231383
v 0.500000 0.152918 0.231383
v -0.500000 -0.152918 0.231383
v 0.500000 -0.152918 0.231383
v 1.500000 -0.060249 0.231383
v 1.500000 -0.060249 0.500000
v 1.500000 0.060249 0.231383
v 1.500000 0.060249 0.500000
v -1.500000 -0.060249 0.231383
v -1.500000 -0.060249 0.500000
v -1.500000 0.060249 0.500000
v -1.500000 0.060249 0.231383
v -0.185695 0.118468 -2.721307
v 0.185695 0.118468 -2.721307
v 0.185695 -0.118468 -2.721307
v -0.185695 -0.118468 -2.721307
v 1.500000 0.000000 0.500000
v 1.500000 0.000000 0.231383
v 0.500000 0.000000 0.231383
v 0.288475 0.000000 -2.721307
v -0.288475 0.000000 -2.721307
v -0.500000 0.000000 0.231383
v -1.500000 0.000000 0.231383
v -1.500000 0.000000 0.500000
v 0.000000 -0.500000 0.500000
v 0.000000 -0.500000 0.231383
v 0.000000 -0.184039 -2.721307
v 0.000000 0.184039 -2.721307
v 0.000000 0.500000 0.231383
v 0.000000 0.500000 0.500000
v -0.249831 0.140744 0.154074
v 0.000000 0.218644 0.154074
v 0.249831 0.140744 0.154074
v 0.388111 0.000000 0.154073
v 0.249831 -0.140744 0.154074
v 0.000000 -0.218644 0.154073
v -0.249831 -0.140744 0.154074
v -0.388111 0.000000 0.154074
v -0.541663 0.000000 0.500000
v 0.000000 0.124987 0.500000
v 0.000000 -0.124987 0.500000
v 0.541663 0.000000 0.500000
v -0.541663 0.000000 6.500000
v 0.000000 0.124987 6.500000
v 0.541663 0.000000 6.500000
v -0.541663 0.000000 6.500000
v 0.000000 -0.124987 6.500000
v 0.000000 0.124987 6.500000
v 0.541663 0.000000 6.500000
v -0.541663 0.000000 0.500000
v 0.000000 -0.124987 0.500000
v 0.541663 0.000000 0.500000
v 0.000000 0.000000 6.996502
v 0.000000 0.184039 -2.721307
v 0.185695 0.118468 -2.721307
v 0.288475 0.000000 -2.721307
v 0.000000 -0.184039 -2.721307
v 0.185695 -0.118468 -2.721307
v -0.288475 0.000000 -2.721307
v -0.185695 -0.118468 -2.721307
v -0.185695 0.118468 -2.721307
v 0.000000 -0.000000 -2.928452
v -0.000000 0.248359 -2.928452
v 0.208167 0.159871 -2.928452
v 0.323386 0.000000 -2.928452
v 0.000000 -0.248359 -2.928452
v 0.208167 -0.159871 -2.928452
v -0.323386 0.000000 -2.928452
v -0.208167 -0.159871 -2.928452
v -0.208167 0.159871 -2.928452
vt 0.375000 0.000000
vt 0.625000 0.000000
vt 0.375000 0.500000
vt 0.625000 0.500000
vt 0.375000 0.750000
vt 0.625000 0.750000
vt 0.375000 1.000000
vt 0.625000 1.000000
vt 0.875000 0.000000
vt 0.875000 0.250000
vt 0.125000 0.000000
vt 0.125000 0.250000
vt 0.875000 0.000000
vt 0.875000 0.250000
vt 0.625000 0.250000
vt 0.125000 0.000000
vt 0.375000 0.000000
vt 0.125000 0.250000
vt 0.375000 0.500000
vt 0.625000 0.500000
vt 0.625000 0.750000
vt 0.375000 0.750000
vt 0.875000 0.125000
vt 0.625000 0.625000
vt 0.875000 0.125000
vt 0.625000 0.625000
vt 0.375000 0.625000
vt 0.125000 0.125000
vt 0.375000 0.625000
vt 0.125000 0.125000
vt 0.500000 1.000000
vt 0.500000 0.750000
vt 0.500000 0.750000
vt 0.500000 0.625000
vt 0.500000 0.500000
vt 0.500000 0.500000
vt 0.375000 0.500000
vt 0.500000 0.500000
vt 0.625000 0.500000
vt 0.625000 0.625000
vt 0.625000 0.750000
vt 0.500000 0.750000
vt 0.375000 0.750000
vt 0.375000 0.625000
vt 0.375000 0.125000
vt 0.375000 0.250000
vt 0.625000 0.125000
vt 0.625000 0.000000
vt 0.625000 0.250000
vt 0.375000 0.125000
vt 0.625000 0.125000
vt 0.500000 0.250000
vt 0.500000 0.093753
vt 0.500000 0.156247
vt 0.375000 0.250000
vt 0.500000 0.000000
vt 0.375000 0.125000
vt 0.500000 0.093753
vt 0.500000 0.156247
vt 0.625000 0.125000
vt 0.500000 0.156247
vt 0.375000 0.125000
vt 0.625000 0.125000
vt 0.375000 0.125000
vt 0.500000 0.093753
vt 0.625000 0.125000
vt 0.500000 0.125000
vt 0.500000 0.500000
vt 0.625000 0.500000
vt 0.625000 0.625000
vt 0.625000 0.750000
vt 0.500000 0.750000
vt 0.375000 0.750000
vt 0.375000 0.625000
vt 0.375000 0.500000
vt 0.500000 0.500000
vt 0.625000 0.500000
vt 0.625000 0.625000
vt 0.625000 0.750000
vt 0.500000 0.750000
vt 0.375000 0.750000
vt 0.375000 0.625000
vt 0.375000 0.500000
vn 0.000000 0.947732 -0.319068
vn 0.000000 1.000000 0.000000
vn 0.281327 0.959612 0.000000
vn 0.287888 0.953909 -0.084722
vn -0.000000 0.000000 -1.000000
vn -0.000000 -0.000000 -1.000000
vn 0.000001 0.000000 -1.000000
vn 0.000001 0.000000 -1.000000
vn 0.000000 -1.000000 0.000000
vn -0.000000 -0.947732 -0.319068
vn 0.287888 -0.953909 -0.084722
vn 0.281327 -0.959612 0.000000
vn 1.000000 0.000000 0.000000
vn 1.000000 0.000000 0.000000
vn 1.000000 0.000000 0.000000
vn 1.000000 0.000000 0.000000
vn -1.000000 0.000000 0.000000
vn -1.000000 0.000000 0.000000
vn -1.000000 0.000000 0.000000
vn -1.000000 0.000000 0.000000
vn 0.092273 -0.995734 0.000000
vn 0.092273 -0.995734 0.000000
vn -0.000000 0.000000 -1.000000
vn -0.000000 0.000000 -1.000000
vn -0.000000 0.000000 -1.000000
vn -0.000000 0.000000 -1.000000
vn 0.092273 0.995734 0.000000
vn 0.092273 0.995734 0.000000
vn 0.000000 0.000000 1.000000
vn 0.000000 0.000000 1.000000
vn 0.000000 0.000000 1.000000
vn 0.000000 0.000000 1.000000
vn -0.287888 -0.953909 -0.084722
vn -0.281327 -0.959612 0.000000
vn -0.092273 -0.995734 0.000000
vn -0.092273 -0.995734 0.000000
vn 0.000000 0.000000 1.000000
vn -0.000000 0.000000 1.000000
vn 0.000000 0.000000 1.000000
vn 0.000000 0.000000 1.000000
vn -0.281327 0.959612 0.000000
vn -0.287888 0.953909 -0.084722
vn -0.092273 0.995734 0.000000
vn -0.092273 0.995734 0.000000
vn 0.000000 0.000000 -1.000000
vn 0.000000 0.000000 -1.000000
vn 0.000000 0.000000 -1.000000
vn 0.000000 0.000000 -1.000000
vn 0.000000 0.999908 -0.013564
vn 0.000000 0.987499 -0.157625
vn 0.320902 0.924741 -0.204636
vn 0.312856 0.949713 -0.012883
vn 0.734079 0.677045 -0.052329
vn 0.991793 0.000000 -0.127857
vn 0.999486 0.000000 -0.032064
vn 0.732079 0.680815 -0.023486
vn 0.320902 -0.924741 -0.204636
vn -0.000000 -0.987499 -0.157625
vn 0.000000 -0.999908 -0.013564
vn 0.312856 -0.949713 -0.012883
vn -0.999486 0.000000 -0.032064
vn -0.991793 0.000000 -0.127857
vn -0.734079 0.677045 -0.052329
vn -0.732079 0.680815 -0.023486
vn 0.000000 0.000000 1.000000
vn 0.000000 0.000000 1.000000
vn 1.000000 0.000000 0.000000
vn 1.000000 0.000000 0.000000
vn -0.000000 0.000000 -1.000000
vn -0.000000 0.000000 -1.000000
vn 0.734079 -0.677045 -0.052329
vn 0.732079 -0.680815 -0.023486
vn 0.000000 0.000000 -1.000000
vn 0.000001 0.000000 -1.000000
vn -0.734079 -0.677045 -0.052329
vn -0.732079 -0.680815 -0.023486
vn 0.000000 0.000000 -1.000000
vn 0.000000 0.000000 -1.000000
vn -1.000000 0.000000 0.000000
vn -1.000000 0.000000 0.000000
vn -0.000000 0.000000 1.000000
vn 0.000000 0.000000 1.000000
vn -0.320902 -0.924741 -0.204636
vn -0.312856 -0.949713 -0.012883
vn -0.000001 0.000000 -1.000000
vn -0.000001 0.000000 -1.000000
vn -0.000001 -0.000000 -1.000000
vn -0.320902 0.924741 -0.204636
vn -0.312856 0.949713 -0.012883
vn 0.381251 0.179524 -0.906873
vn 0.387548 0.000000 -0.921850
vn 0.381251 -0.179524 -0.906873
vn -0.381251 -0.179524 -0.906873
vn -0.387547 -0.000000 -0.921850
vn -0.381251 0.179524 -0.906873
vn 0.000000 0.000000 1.000000
vn 0.000000 0.000000 1.000000
vn 0.000000 0.000000 1.000000
vn 0.000000 0.000000 1.000000
vn -0.224840 -0.974396 0.000000
vn 0.000000 -1.000000 0.000000
vn 0.000000 -0.999953 0.009665
vn -0.224837 -0.974384 0.004873
vn 0.000000 1.000000 0.000000
vn -0.224840 0.974396 0.000000
vn -0.224840 0.974396 0.000000
vn 0.000000 1.000000 0.000000
vn 0.224840 -0.974396 0.000000
vn 0.224837 -0.974384 0.004873
vn 0.224840 0.974396 0.000000
vn 0.224840 0.974396 0.000000
vn 0.000000 0.000000 0.000000
vn 0.000000 0.000000 0.000000
vn 0.000000 0.000000 0.000000
vn 0.000000 0.000000 0.000000
vn 0.000000 0.000000 0.000000
vn 0.000000 0.000000 0.000000
vn 0.000000 0.000000 0.000000
vn 0.000000 0.000000 0.000000
vn 0.000000 0.000000 0.000000
vn 0.000000 0.000000 0.000000
vn 0.000000 0.000000 0.000000
vn 0.000000 0.000000 0.000000
vn 0.000000 0.000000 0.000000
vn 0.000000 0.000000 0.000000
vn 0.000000 0.000000 0.000000
vn 0.000000 0.000000 0.000000
vn 0.000000 0.000000 0.000000
vn 0.000000 0.000000 0.000000
vn 0.000000 0.000000 0.000000
vn 0.000000 0.000000 0.000000
vn 0.000000 0.000000 0.000000
vn 0.000000 0.000000 0.000000
vn 0.000000 0.000000 0.000000
vn 0.000000 0.000000 0.000000
vn 0.000000 -0.969745 0.244120
vn 0.000000 0.969745 0.244120
vn -0.218366 0.946342 0.238229
vn 0.000000 0.969745 0.244120
vn 0.218366 0.946342 0.238229
vn 0.000000 0.000000 0.000000
vn 0.000000 0.000000 0.000000
vn 0.000000 0.000000 0.000000
vn 0.000000 0.000000 0.000000
vn 0.000000 0.000000 0.000000
vn 0.000000 0.000000 0.000000
vn 0.000000 0.000000 0.000000
vn 0.000000 0.000000 0.000000
vn 0.000000 0.000000 0.000000
vn 0.000000 0.000000 0.000000
vn 0.000000 0.000000 0.000000
vn 0.000000 0.000000 0.000000
vn 0.000000 0.000000 0.000000
vn 0.000000 0.000000 0.000000
vn 0.000000 0.000000 0.000000
vn 0.000000 0.000000 0.000000
vn 0.000000 0.000000 0.000000
vn 0.000000 0.000000 0.000000
vn 0.000000 0.000000 0.000000
vn 0.000000 0.000000 0.000000
vn 0.000000 0.000000 0.000000
vn 0.000000 0.000000 0.000000
vn 0.000000 0.000000 0.000000
vn 0.000000 0.000000 0.000000
vn 0.000000 0.000000 0.000000
vn 0.000000 0.000000 0.000000
vn 0.000000 0.000000 0.000000
vn 0.000000 0.000000 0.000000
vn 0.000000 0.000000 0.000000
vn 0.000000 0.000000 0.000000
vn 0.000000 0.000000 0.000000
vn 0.000000 0.000000 0.000000
vn 0.352774 0.901890 0.249290
vn 0.565876 0.794664 0.219761
vn 0.557445 0.800181 0.221281
vn 0.352774 0.901890 0.249290
vn 0.776052 0.607816 0.168236
vn 0.776052 0.607816 0.168236
vn 0.776052 -0.607816 0.168236
vn 0.565875 -0.794663 0.219761
vn 0.557446 -0.800181 0.221281
vn 0.776052 -0.607816 0.168236
vn 0.352774 -0.901890 0.249290
vn 0.352774 -0.901890 0.249290
vn -0.352774 -0.901890 0.249290
vn -0.565875 -0.794664 0.219761
vn -0.557445 -0.800181 0.221281
vn -0.352774 -0.901890 0.249290
vn -0.776052 -0.607816 0.168236
vn -0.776052 -0.607816 0.168236
vn -0.565876 0.794663 0.219761
vn -0.352774 0.901890 0.249290
vn -0.352774 0.901890 0.249290
vn -0.557445 0.800181 0.221281
vn -0.776052 0.607816 0.168236
vn -0.776052 0.607816 0.168236
s 1
g pCube1
usemtl initialShadingGroup
f 33/36/1 34/52/2 4/49/3 6/4/4
s 2
f 66/34/5 67/76/6 68/77/7 69/78/8
s 3
f 29/31/9 30/32/10 8/6/11 2/8/12
s 4
f 21/47/13 22/23/14 11/14/15 12/15/16
s 5
f 27/30/17 28/45/18 15/46/19 16/18/20
s 3
f 2/2/12 8/9/11 9/13/21 10/48/22
s 6
f 22/23/23 23/25/24 6/10/25 11/14/26
s 1
f 6/10/4 4/49/3 12/15/27 11/14/28
s 7
f 4/49/29 46/51/30 21/47/31 12/15/32
s 3
f 7/11/33 1/1/34 14/17/35 13/16/36
s 7
f 28/45/37 43/50/38 3/55/39 15/46/40
s 1
f 3/55/41 5/12/42 16/18/43 15/46/44
s 9
f 5/12/45 26/28/46 27/30/47 16/18/48
s 1
f 32/35/49 36/38/50 37/39/51 18/20/52
s 11
f 37/39/53 38/40/54 24/26/55 18/20/56
s 3
f 39/41/57 40/42/58 31/33/59 19/21/60
s 12
f 25/27/61 42/44/62 35/37/63 17/19/64
s 7
f 21/47/31 46/51/30 2/2/65 10/48/66
s 4
f 10/48/67 9/13/68 22/23/14 21/47/13
s 6
f 8/9/69 23/25/24 22/23/23 9/13/70
s 11
f 24/26/55 38/40/54 39/41/71 19/21/72
s 2
f 70/80/73 66/34/5 69/78/8 71/79/74
s 12
f 41/43/75 42/44/62 25/27/61 20/22/76
s 9
f 27/30/47 26/28/46 7/11/77 13/16/78
s 5
f 13/16/79 14/17/80 28/45/18 27/30/17
s 7
f 1/1/81 43/50/38 28/45/37 14/17/82
s 3
f 7/5/33 30/32/10 29/31/9 1/7/34
f 31/33/59 40/42/58 41/43/83 20/22/84
s 2
f 72/82/85 66/34/5 70/80/73 73/81/86
f 74/83/87 67/76/6 66/34/5 72/82/85
s 1
f 35/37/88 36/38/50 32/35/49 17/19/89
f 3/55/41 34/52/2 33/36/1 5/3/42
f 5/3/42 33/36/1 36/38/50 35/37/88
f 37/39/51 36/38/50 33/36/1 6/4/4
s 11
f 6/4/90 23/24/91 38/40/54 37/39/53
f 39/41/71 38/40/54 23/24/91 8/6/92
s 3
f 8/6/11 30/32/10 40/42/58 39/41/57
f 41/43/83 40/42/58 30/32/10 7/5/33
s 12
f 7/5/93 26/29/94 42/44/62 41/43/75
f 35/37/63 42/44/62 26/29/94 5/3/95
s 7
f 34/52/96 44/54/97 46/51/30 4/49/29
f 45/53/98 29/56/99 2/2/65 46/51/30
f 43/50/38 44/54/97 34/52/96 3/55/39
f 1/1/81 29/56/99 45/53/98 43/50/38
s 13
f 54/64/100 55/65/101 51/58/102 50/62/103
s 14
f 44/54/104 43/50/105 47/57/106 48/59/107
s 13
f 55/65/101 56/66/108 53/63/109 51/58/102
s 14
f 46/51/110 44/54/104 48/59/107 49/60/111
s off
f 48/59/112 47/57/113 50/62/114 52/61/115
f 49/60/116 48/59/117 52/61/118 53/63/119
f 43/50/120 45/53/121 55/65/122 54/64/123
f 47/57/124 43/50/125 54/64/126 50/62/127
f 45/53/128 46/51/129 56/66/130 55/65/131
f 46/51/132 49/60/133 53/63/134 56/66/135
s 13
f 50/62/103 51/58/102 57/67/136
s 15
f 52/61/137 50/62/138 57/67/139
s 13
f 51/58/102 53/63/109 57/67/136
s 15
f 53/63/140 52/61/137 57/67/139
s off
f 32/35/141 18/20/142 59/69/143 58/68/144
f 18/20/145 24/26/146 60/70/147 59/69/148
f 24/26/149 19/21/150 62/71/151 60/70/152
f 19/21/153 31/33/154 61/72/155 62/71/156
f 31/33/157 20/22/158 64/73/159 61/72/160
f 20/22/161 25/27/162 63/74/163 64/73/164
f 17/19/165 32/35/166 58/68/167 65/75/168
f 25/27/169 17/19/170 65/75/171 63/74/172
s 16
f 58/68/173 59/69/174 68/77/175 67/76/176
f 59/69/174 60/70/177 69/78/178 68/77/175
s 17
f 60/70/179 62/71/180 71/79/181 69/78/182
f 62/71/180 61/72/183 70/80/184 71/79/181
s 18
f 61/72/185 64/73/186 73/81/187 70/80/188
f 64/73/186 63/74/189 72/82/190 73/81/187
s 19
f 65/75/191 58/68/192 67/76/193 74/83/194
f 63/74/195 65/75/191 74/83/194 72/82/196
